<?xml version="1.0" standalone="no"?><!DOCTYPE svg PUBLIC "-//W3C//DTD SVG 1.1//EN" "http://www.w3.org/Graphics/SVG/1.1/DTD/svg11.dtd"><svg t="1482713363687" class="icon" style="" viewBox="0 0 1024 1024" version="1.1" xmlns="http://www.w3.org/2000/svg" p-id="1438" xmlns:xlink="http://www.w3.org/1999/xlink" width="200" height="200"><defs><style type="text/css"></style></defs><path d="M837.346391 96.240925C769.913583 96.240925 715.141118 150.243863 715.141118 216.841653c0 66.48625 54.771441 120.53933 122.205273 120.53933 67.595514 0 122.284067-54.05308 122.284067-120.53933C959.630459 150.243863 904.941905 96.240925 837.346391 96.240925L837.346391 96.240925 837.346391 96.240925zM186.692494 337.380984c67.595514 0 122.274858-54.05308 122.274858-120.53933 0-66.597791-54.679343-120.600729-122.274858-120.600729-67.343781 0-122.325 54.002938-122.325 120.600729C64.367495 283.32688 119.299595 337.380984 186.692494 337.380984L186.692494 337.380984 186.692494 337.380984zM485.707682 605.835132c-170.700777 0-321.278237 88.527243-410.651754 224.081545-27.516704 41.721217 2.651386 97.842399 52.218292 97.842399l4.850471 0c19.912515 0 39.181371-9.356089 50.453089-26.133194 66.75845-99.055017 177.620373-163.845649 303.129902-163.845649 126.186957 0 237.661841 63.863517 304.268842 163.683966 11.212366 16.778128 30.592762 26.253944 50.596352 26.253944l3.022847 0c49.567929 0.081864 79.755462-56.138578 52.190663-97.801467C806.23072 694.603875 655.976624 605.835132 485.707682 605.835132L485.707682 605.835132 485.707682 605.835132zM485.707682 605.835132" p-id="1439"></path></svg>