<?xml version="1.0" standalone="no"?><!DOCTYPE svg PUBLIC "-//W3C//DTD SVG 1.1//EN" "http://www.w3.org/Graphics/SVG/1.1/DTD/svg11.dtd"><svg t="1482727723991" class="icon" style="" viewBox="0 0 1208 1024" version="1.1" xmlns="http://www.w3.org/2000/svg" p-id="2014" xmlns:xlink="http://www.w3.org/1999/xlink" width="235.9375" height="200"><defs><style type="text/css"></style></defs><path d="M66.297436 690.464821c22.711795-6.301538 35.997538-29.827282 29.696-52.512821-7.062974-25.468718-10.660103-51.908923-10.660103-78.637949 0-161.581949 131.465846-293.047795 293.047795-293.047795l173.71241 0c1.785436-29.512205 7.062974-58.105436 15.412513-85.333333L378.354872 180.932923c-101.060923 0-196.082872 39.358359-267.552821 110.828308C39.358359 363.231179 0 458.253128 0 559.314051c0 34.44841 4.647385 68.581744 13.784615 101.481026 5.251282 18.878359 22.396718 31.245128 41.091282 31.245128C58.630564 692.040205 62.490256 691.541333 66.297436 690.464821z" p-id="2015" fill="#000000"></path><path d="M684.609641 819.620103 287.533949 819.620103l0-75.592205c0-24.260923-16.882872-33.660718-37.494154-20.873846l-181.930667 112.692513c-20.611282 12.786872-20.821333 34.002051-0.446359 47.156513l182.797128 118.075077c20.374974 13.154462 37.047795 4.069744 37.047795-20.164923l0-75.959795 397.075692 0c101.060923 0 196.082872-39.358359 267.552821-110.828308 45.581128-45.581128 78.086564-100.71959 95.678359-160.925538-31.507692 11.789128-65.063385 19.377231-99.98441 22.107897C900.096 752.534974 800.032821 819.620103 684.609641 819.620103z" p-id="2016" fill="#000000"></path><path d="M918.974359 0c-159.507692 0-288.820513 129.312821-288.820513 288.820513s129.312821 288.820513 288.820513 288.820513S1207.794872 448.328205 1207.794872 288.820513 1078.482051 0 918.974359 0zM972.537436 442.473026l-55.296 0 0-218.295795C896.918974 242.609231 871.397744 256.315077 840.205128 265.294769l0-54.823385c15.123692-3.780923 31.192615-10.397538 48.206769-19.849846 17.014154-10.397538 31.192615-21.267692 42.535385-33.083077l41.590154 0L972.537436 442.473026z" p-id="2017" fill="#000000"></path></svg>