<?xml version="1.0" standalone="no"?><!DOCTYPE svg PUBLIC "-//W3C//DTD SVG 1.1//EN" "http://www.w3.org/Graphics/SVG/1.1/DTD/svg11.dtd"><svg t="1484744685295" class="icon" style="" viewBox="0 0 1024 1024" version="1.1" xmlns="http://www.w3.org/2000/svg" p-id="3235" xmlns:xlink="http://www.w3.org/1999/xlink" width="200" height="200"><defs><style type="text/css"></style></defs><path d="M962.706 234.6c-10.429-15.245-26.896-23.988-45.18-23.988-16.079 0-32.181 6.47-47.856 19.229L692.528 374.003l0-53.138c0-53.538-43.599-97.093-97.189-97.093L146.19 223.772c-53.591 0-97.19 43.556-97.19 97.093l0 382.26c0 53.537 43.599 97.093 97.19 97.093l449.149 0c53.591 0 97.189-43.556 97.189-97.093l0-53.137 177.138 144.167c15.691 12.762 31.794 19.231 47.861 19.231 18.302 0 34.778-8.761 45.203-24.037 8.133-11.918 12.257-27.043 12.257-44.954L975 279.606C975 261.667 970.863 246.525 962.706 234.6zM622.528 703.125c0 14.939-12.197 27.093-27.189 27.093L146.19 730.218c-14.993 0-27.19-12.153-27.19-27.093l0-382.26c0-14.939 12.197-27.093 27.19-27.093l449.149 0c14.992 0 27.189 12.154 27.189 27.093L622.528 703.125zM904.987 732.648 633.869 511.994l271.118-220.643L904.987 732.648z" p-id="3236" fill="#ffffff"></path></svg>