<?xml version="1.0" standalone="no"?><!DOCTYPE svg PUBLIC "-//W3C//DTD SVG 1.1//EN" "http://www.w3.org/Graphics/SVG/1.1/DTD/svg11.dtd"><svg width="200" height="200" viewBox="0 0 200 200" version="1.1" xmlns="http://www.w3.org/2000/svg" xmlns:xlink="http://www.w3.org/1999/xlink"><defs><style type="text/css"><![CDATA[
@font-face { font-family: ifont; src: url("//at.alicdn.com/t/font_1442373896_4754455.eot?#iefix") format("embedded-opentype"), url("//at.alicdn.com/t/font_1442373896_4754455.woff") format("woff"), url("//at.alicdn.com/t/font_1442373896_4754455.ttf") format("truetype"), url("//at.alicdn.com/t/font_1442373896_4754455.svg#ifont") format("svg"); }

]]></style></defs><g class="transform-group"><g transform="scale(0.1953125, 0.1953125)"><path d="M1017.6 166.4c0-25.6-19.2-44.8-44.8-44.8-25.6 0-44.8 19.2-44.8 44.8l0 0L928 1024l89.6 0L1017.6 166.4 1017.6 166.4 1017.6 166.4zM51.2 428.8C25.6 428.8 6.4 448 6.4 473.6l0 0L6.4 1024l89.6 0L96 473.6l0 0C96 448 76.8 428.8 51.2 428.8L51.2 428.8zM358.4 0C332.8 0 313.6 19.2 313.6 44.8l0 0L313.6 1024l89.6 0L403.2 44.8l0 0C403.2 19.2 384 0 358.4 0L358.4 0zM665.6 275.2C640 275.2 620.8 294.4 620.8 320l0 0 0 704 89.6 0L710.4 320l0 0C710.4 294.4 691.2 275.2 665.6 275.2L665.6 275.2zM665.6 275.2" fill="#000000"></path></g></g></svg>