<?xml version="1.0" standalone="no"?><!DOCTYPE svg PUBLIC "-//W3C//DTD SVG 1.1//EN" "http://www.w3.org/Graphics/SVG/1.1/DTD/svg11.dtd"><svg t="1484490790513" class="icon" style="" viewBox="0 0 1024 1024" version="1.1" xmlns="http://www.w3.org/2000/svg" p-id="2297" xmlns:xlink="http://www.w3.org/1999/xlink" width="200" height="200"><defs><style type="text/css"></style></defs><path d="M127.043976 739.943502l-58.558697 7.4159c-0.773619-6.096858-37.673018-311.126017 121.392768-491.031433 66.794265-75.575256 168.167071-129.082914 321.31917-129.082914 158.018943 0 261.21221 54.91675 328.187601 132.085294C997.404784 441.375499 953.953156 747.041154 953.953156 747.041154l-58.4666-8.280594c0.409322-2.775206 38.036291-280.913924-100.691283-440.754353-64.381309-74.164117-159.793356-111.747083-283.598057-111.747083-119.846552 0-213.07384 36.718273-277.092899 109.153002C93.556281 454.43391 126.680702 736.895073 126.997927 739.625254L127.043976 739.943502" p-id="2298" fill="#ffffff"></path><path d="M806.368866 894.668423 717.810924 894.668423 717.810924 569.966203 806.368866 569.966203 806.368866 894.668423 806.368866 894.668423Z" p-id="2299" fill="#ffffff"></path><path d="M304.595788 894.668423 216.036823 894.668423 216.036823 569.966203 304.595788 569.966203 304.595788 894.668423 304.595788 894.668423Z" p-id="2300" fill="#ffffff"></path></svg>